<svg xmlns="http://www.w3.org/2000/svg" width="44" height="37" fill="none" xmlns:v="https://vecta.io/nano"><path d="M13.345 1.024c.825.742.892 2 .15 2.824l-5.999 6.665c-.367.408-.883.65-1.433.658s-1.075-.2-1.466-.583L1.256 7.256c-.775-.783-.775-2.05 0-2.833a1.99 1.99 0 0 1 2.824 0l1.841 1.841 4.591-5.099c.742-.825 2-.891 2.824-.15l.008.008zm0 13.331c.825.742.892 2 .15 2.824l-5.999 6.665c-.367.408-.883.65-1.433.658s-1.075-.2-1.466-.583l-3.341-3.333c-.783-.783-.783-2.05 0-2.824a2 2 0 0 1 2.824 0l1.841 1.841 4.591-5.099c.742-.825 2-.892 2.824-.15h.008zm5.99-8.515c0-1.475 1.192-2.666 2.666-2.666h18.663c1.475 0 2.666 1.191 2.666 2.666s-1.191 2.666-2.666 2.666H22.002c-1.475 0-2.666-1.191-2.666-2.666zm0 13.331c0-1.475 1.192-2.666 2.666-2.666h18.663c1.475 0 2.666 1.191 2.666 2.666s-1.191 2.666-2.666 2.666H22.002c-1.475 0-2.666-1.192-2.666-2.666zm-5.332 13.331c0-1.475 1.191-2.666 2.666-2.666h23.995c1.475 0 2.666 1.192 2.666 2.666s-1.191 2.666-2.666 2.666H16.67c-1.475 0-2.666-1.191-2.666-2.666zm-9.332-3.999a4 4 0 0 1 3.999 3.999A4 4 0 0 1 4.672 36.5a4 4 0 0 1-3.999-3.999 4 4 0 0 1 3.999-3.999z" fill="#ababab"/></svg>